<?xml version="1.0" standalone="no"?>
<!DOCTYPE svg PUBLIC "-//W3C//DTD SVG 20010904//EN"
 "http://www.w3.org/TR/2001/REC-SVG-20010904/DTD/svg10.dtd">
<svg version="1.0" xmlns="http://www.w3.org/2000/svg"
 width="512.000000pt" height="512.000000pt" viewBox="0 0 512.000000 512.000000"
 preserveAspectRatio="xMidYMid meet">

<g transform="translate(0.000000,512.000000) scale(0.100000,-0.100000)"
fill="#000000" stroke="none">
<path d="M2455 5009 c-72 -11 -144 -34 -208 -66 -48 -24 -151 -115 -158 -141
-3 -8 -41 -18 -99 -27 -482 -73 -906 -246 -1220 -498 -107 -86 -162 -140 -247
-241 -214 -254 -343 -544 -399 -896 -25 -160 -34 -1402 -10 -1519 42 -206 254
-725 408 -994 124 -219 214 -324 325 -379 65 -32 73 -33 183 -33 l115 0 300
102 c292 100 396 129 560 159 325 59 796 58 1115 -1 153 -29 341 -82 555 -158
279 -100 319 -110 430 -105 78 3 100 8 156 35 161 80 287 251 462 628 136 293
262 631 287 770 9 53 11 231 7 730 -5 709 -7 746 -62 965 -33 131 -68 226
-132 355 -252 503 -715 847 -1368 1015 -131 33 -208 49 -382 75 -29 5 -44 13
-48 25 -10 32 -106 111 -170 141 -116 55 -275 78 -400 58z m302 -240 c74 -37
118 -87 107 -123 -9 -34 -81 -93 -137 -113 -39 -13 -82 -18 -167 -18 -137 0
-199 18 -259 73 -52 48 -57 70 -28 113 50 74 156 110 309 106 98 -3 112 -6
175 -38z m-673 -237 c67 -132 271 -231 476 -231 205 0 409 99 476 231 28 56 8
54 204 16 533 -102 966 -342 1236 -683 134 -169 246 -409 292 -626 37 -171 42
-272 42 -873 l0 -584 -22 6 c-13 3 -120 43 -238 90 -472 185 -666 253 -899
316 -409 111 -721 156 -1087 156 -339 0 -632 -37 -979 -125 -289 -73 -460
-132 -927 -316 -180 -71 -332 -129 -338 -129 -8 0 -10 170 -7 648 4 707 4 702
68 922 34 118 125 316 190 412 290 429 774 701 1449 811 14 2 28 5 32 6 4 0
19 -21 32 -47z m866 -2407 c447 -53 816 -158 1475 -418 132 -52 266 -103 298
-113 31 -10 57 -21 57 -25 0 -3 -16 -50 -35 -103 -165 -456 -375 -872 -496
-981 -100 -90 -171 -94 -384 -19 -330 117 -388 135 -500 164 -271 68 -485 93
-805 93 -430 0 -727 -51 -1130 -193 -268 -95 -318 -110 -381 -117 -144 -15
-248 101 -434 482 -136 278 -287 658 -268 675 5 4 33 15 63 24 30 10 165 62
300 116 703 280 1104 389 1594 430 137 12 493 4 646 -15z"/>
<path d="M2460 3984 c-112 -22 -241 -91 -298 -160 -85 -102 -112 -209 -112
-444 0 -245 29 -352 123 -456 91 -101 239 -155 421 -155 209 -1 380 73 455
195 56 89 -4 178 -119 178 -57 0 -80 -11 -143 -69 -75 -70 -159 -94 -252 -73
-68 15 -112 52 -143 119 -26 55 -26 61 -26 261 0 191 2 209 23 257 40 90 101
126 212 125 83 0 121 -16 197 -85 69 -61 108 -74 173 -57 96 26 127 108 70
186 -51 72 -115 115 -231 156 -42 16 -86 21 -190 23 -74 2 -146 1 -160 -1z"/>
</g>
</svg>
